# xmcd
#
# Track frame offsets:
#       150
#       19963
#       33471
#       51383
#       67666
#       86597
#       101081
#       124253
#       138197
#       155601
#       174947
#       193763
#       213195
#       234469
#       255713
#       281466
#       310185
#
# Disc length: 4435 seconds
#
# Revision: 0
# Processed by: cddbd v1.5.1PL0 Copyright (c) Steve Scherf et al.
# Submitted via: WhereIsIt 3.52
#
DISCID=ea115111
DTITLE=Eric Clapton - The best of (1/2)
DYEAR=2002
DGENRE=
TTITLE0=Ridding With The King (with B.B. King)
TTITLE1=Blues Before Sunrise
TTITLE2=Before You Accuse Me
TTITLE3=Cocaine
TTITLE4=Sunshine Of Your Love
TTITLE5=Forever Man
TTITLE6=Bad Love
TTITLE7=After Midnight
TTITLE8=Lay Down Sally
TTITLE9=Tearing Us Apart (with Tina Turner)
TTITLE10=I Can't Stand It
TTITLE11=(I) Get Lost
TTITLE12=I Ain't Gonna Stand For It
TTITLE13=Pretending
TTITLE14=Pilgrim
TTITLE15=It's Probably Me
TTITLE16=It All Depends
EXTD=
EXTT0=
EXTT1=
EXTT2=
EXTT3=
EXTT4=
EXTT5=
EXTT6=
EXTT7=
EXTT8=
EXTT9=
EXTT10=
EXTT11=
EXTT12=
EXTT13=
EXTT14=
EXTT15=
EXTT16=
PLAYORDER=
